<?xml version="1.0" standalone="no"?><svg xmlns="http://www.w3.org/2000/svg" viewBox="0 0 1440 320"><path fill="#0099ff" fill-opacity="1" d="M0,256L20,234.7C40,213,80,171,120,160C160,149,200,171,240,197.3C280,224,320,256,360,250.7C400,245,440,203,480,181.3C520,160,560,160,600,144C640,128,680,96,720,101.3C760,107,800,149,840,154.7C880,160,920,128,960,144C1000,160,1040,224,1080,240C1120,256,1160,224,1200,181.3C1240,139,1280,85,1320,101.3C1360,117,1400,203,1420,245.3L1440,288L1440,320L1420,320C1400,320,1360,320,1320,320C1280,320,1240,320,1200,320C1160,320,1120,320,1080,320C1040,320,1000,320,960,320C920,320,880,320,840,320C800,320,760,320,720,320C680,320,640,320,600,320C560,320,520,320,480,320C440,320,400,320,360,320C320,320,280,320,240,320C200,320,160,320,120,320C80,320,40,320,20,320L0,320Z"></path></svg>